<svg version="1.1" id="Layer_1" xmlns="http://www.w3.org/2000/svg" xmlns:xlink="http://www.w3.org/1999/xlink" x="0px" y="0px"
	 width="100%" viewBox="0 0 225 225" enable-background="new 0 0 225 225" xml:space="preserve">
<path fill="#FEFEFE" opacity="1.000000" stroke="none" 
	d="
M123.000000,226.000000 
	C83.333336,226.000000 44.166451,225.943634 5.000397,226.098557 
	C1.574255,226.112091 0.897812,225.424347 0.903703,221.999832 
	C1.030420,148.333389 1.000000,74.666679 1.000000,1.000010 
	C74.666656,1.000000 148.333359,1.030417 221.999802,0.903709 
	C225.424240,0.897818 226.102371,1.575541 226.096344,5.000135 
	C225.969025,77.333244 225.969055,149.666687 226.096359,221.999786 
	C226.102386,225.424210 225.426575,226.116714 221.999542,226.099380 
	C189.167038,225.933212 156.333344,226.000000 123.000000,226.000000 
z"/>
<path fill="#010101" opacity="1.000000" stroke="none" 
	d="
M118.804146,9.982882 
	C168.521225,12.227952 210.208969,51.617718 216.302795,100.475647 
	C222.964081,153.883163 187.275620,205.876053 130.297043,215.855103 
	C76.009880,225.362808 22.044144,187.499741 11.776608,133.640106 
	C0.878062,76.470421 38.367355,21.301718 96.422890,11.224796 
	C103.666389,9.967514 110.986534,9.691740 118.804146,9.982882 
z"/>
<path fill="#FAFAFA" opacity="1.000000" stroke="none" 
	d="
M127.561928,142.733673 
	C127.025818,142.551788 126.879707,142.468109 126.723793,142.411346 
	C118.549316,139.435410 114.327019,134.303055 115.097313,128.275421 
	C115.904793,121.956810 122.795303,116.504921 130.774841,116.054352 
	C134.057922,115.868965 137.360184,116.023659 141.060959,116.023659 
	C141.060959,106.907036 141.035049,97.432480 141.085052,87.958328 
	C141.093964,86.270638 140.673462,85.524193 138.828720,85.902252 
	C130.376892,87.634361 121.917595,89.331398 113.449188,90.980484 
	C110.693115,91.517197 111.978424,93.621613 111.968910,94.956215 
	C111.866814,109.285057 111.905334,123.614906 111.905319,137.944473 
	C111.905312,147.406036 109.764580,150.482529 100.547455,153.255493 
	C93.403549,155.404739 86.324982,154.966003 79.946793,150.815125 
	C71.995941,145.640762 72.044281,135.962341 79.838997,130.541031 
	C84.925461,127.003349 90.743340,126.224884 96.544624,127.224419 
	C100.269981,127.866287 100.089241,126.356117 100.073044,123.788361 
	C99.999496,112.125229 100.189934,100.458549 99.969826,88.799110 
	C99.877670,83.917328 101.836685,81.409103 106.545212,80.496941 
	C119.417244,78.003296 132.253937,75.327576 145.122314,72.814529 
	C149.768051,71.907272 152.764679,74.045563 152.807098,78.698524 
	C152.963577,95.859093 153.048309,113.023865 152.820435,130.182556 
	C152.735397,136.585419 146.573090,141.805954 138.890808,142.948151 
	C135.237381,143.491348 131.591187,143.299133 127.561928,142.733673 
z"/>
</svg>